<svg viewBox="0 0 40 40" xmlns="http://www.w3.org/2000/svg" xmlns:xlink="http://www.w3.org/1999/xlink" width="40.000000" height="40.000000" fill="none" customFrame="#000000">
	<defs>
		<clipPath id="clipPath_3">
			<rect width="20.000000" height="20.000000" x="10.000000" y="10.500000" fill="rgb(255,255,255)" />
		</clipPath>
		<linearGradient id="paint_linear_4" x1="14.1404705" x2="25.5406647" y1="25.7650223" y2="15.5216417" gradientUnits="userSpaceOnUse">
			<stop stop-color="rgb(247,233,63)" offset="0" stop-opacity="1" />
			<stop stop-color="rgb(251,9,180)" offset="0.511200011" stop-opacity="1" />
			<stop stop-color="rgb(145,0,248)" offset="1" stop-opacity="1" />
		</linearGradient>
	</defs>
	<g id="Group 12">
		<circle id="Ellipse 4" cx="20" cy="20" r="20" fill="rgb(255,255,255)" fill-opacity="0" />
		<circle id="Ellipse 4" cx="20" cy="20" r="19.5" stroke="rgb(83,60,114)" stroke-width="1.000000" />
		<g id="mdi:instagram" clip-path="url(#clipPath_3)" customFrame="url(#clipPath_3)">
			<rect id="mdi:instagram" width="20.000000" height="20.000000" x="10.000000" y="10.500000" fill="rgb(255,255,255)" fill-opacity="0" />
			<path id="Vector" d="M16.5 12.1667L23.5 12.1667C26.1666 12.1667 28.3333 14.3334 28.3333 17.0001L28.3333 24.0001C28.3333 25.282 27.8241 26.5113 26.9176 27.4178C26.0112 28.3242 24.7818 28.8334 23.5 28.8334L16.5 28.8334C13.8333 28.8334 11.6666 26.6667 11.6666 24.0001L11.6666 17.0001C11.6666 15.7182 12.1759 14.4888 13.0823 13.5824C13.9887 12.676 15.2181 12.1667 16.5 12.1667ZM16.3333 13.8334C15.5376 13.8334 14.7746 14.1495 14.212 14.7121C13.6494 15.2747 13.3333 16.0378 13.3333 16.8334L13.3333 24.1667C13.3333 25.8251 14.675 27.1667 16.3333 27.1667L23.6666 27.1667C24.4623 27.1667 25.2253 26.8507 25.7879 26.2881C26.3506 25.7255 26.6666 24.9624 26.6666 24.1667L26.6666 16.8334C26.6666 15.1751 25.325 13.8334 23.6666 13.8334L16.3333 13.8334ZM24.375 15.0834C24.6512 15.0834 24.9162 15.1932 25.1115 15.3885C25.3069 15.5839 25.4166 15.8488 25.4166 16.1251C25.4166 16.4013 25.3069 16.6663 25.1115 16.8617C24.9162 17.057 24.6512 17.1667 24.375 17.1667C24.0987 17.1667 23.8337 17.057 23.6384 16.8617C23.443 16.6663 23.3333 16.4013 23.3333 16.1251C23.3333 15.8488 23.443 15.5839 23.6384 15.3885C23.8337 15.1932 24.0987 15.0834 24.375 15.0834ZM20 16.3334C21.105 16.3334 22.1648 16.7724 22.9462 17.5538C23.7276 18.3352 24.1666 19.395 24.1666 20.5001C24.1666 21.6052 23.7276 22.665 22.9462 23.4464C22.1648 24.2278 21.105 24.6667 20 24.6667C18.8949 24.6667 17.8351 24.2278 17.0537 23.4464C16.2723 22.665 15.8333 21.6052 15.8333 20.5001C15.8333 19.395 16.2723 18.3352 17.0537 17.5538C17.8351 16.7724 18.8949 16.3334 20 16.3334ZM20 18.0001C19.3369 18.0001 18.701 18.2635 18.2322 18.7323C17.7634 19.2012 17.5 19.837 17.5 20.5001C17.5 21.1631 17.7634 21.799 18.2322 22.2678C18.701 22.7367 19.3369 23.0001 20 23.0001C20.663 23.0001 21.2989 22.7367 21.7677 22.2678C22.2366 21.799 22.5 21.1631 22.5 20.5001C22.5 19.837 22.2366 19.2012 21.7677 18.7323C21.2989 18.2635 20.663 18.0001 20 18.0001Z" fill="url(#paint_linear_4)" fill-rule="nonzero" />
		</g>
	</g>
</svg>
