<svg viewBox="0 0 40 40" xmlns="http://www.w3.org/2000/svg" xmlns:xlink="http://www.w3.org/1999/xlink" width="40.000000" height="40.000000" fill="none" customFrame="#000000">
	<defs>
		<clipPath id="clipPath_0">
			<rect width="20.000000" height="20.000000" x="10.000000" y="10.500000" fill="rgb(255,255,255)" />
		</clipPath>
		<linearGradient id="paint_linear_0" x1="14.1405315" x2="21.9225731" y1="24.1855392" y2="14.1964388" gradientUnits="userSpaceOnUse">
			<stop stop-color="rgb(247,233,63)" offset="0" stop-opacity="1" />
			<stop stop-color="rgb(251,9,180)" offset="0.511200011" stop-opacity="1" />
			<stop stop-color="rgb(145,0,248)" offset="1" stop-opacity="1" />
		</linearGradient>
		<linearGradient id="paint_linear_1" x1="19.2447586" x2="21.9617653" y1="21.816185" y2="19.8632488" gradientUnits="userSpaceOnUse">
			<stop stop-color="rgb(247,233,63)" offset="0" stop-opacity="1" />
			<stop stop-color="rgb(251,9,180)" offset="0.511200011" stop-opacity="1" />
			<stop stop-color="rgb(145,0,248)" offset="1" stop-opacity="1" />
		</linearGradient>
	</defs>
	<g id="Group 13">
		<circle id="Ellipse 4" cx="20" cy="20" r="20" fill="rgb(255,255,255)" fill-opacity="0" />
		<circle id="Ellipse 4" cx="20" cy="20" r="19.5" stroke="rgb(83,60,114)" stroke-width="1.000000" />
		<g id="mynaui:youtube" clip-path="url(#clipPath_0)" customFrame="url(#clipPath_0)">
			<rect id="mynaui:youtube" width="20.000000" height="20.000000" x="10.000000" y="10.500000" fill="rgb(255,255,255)" fill-opacity="0" />
			<g id="Group">
				<path id="Vector" d="M12.8867 15.5209C14.1084 14.6667 16.0717 14.6667 20 14.6667C23.9284 14.6667 25.8925 14.6667 27.1125 15.5209C28.3325 16.3751 28.3334 17.7501 28.3334 20.5001C28.3334 23.2501 28.3334 24.6251 27.1125 25.4792C25.8934 26.3334 23.9284 26.3334 20 26.3334C16.0717 26.3334 14.1075 26.3334 12.8867 25.4792C11.6659 24.6251 11.6667 23.2501 11.6667 20.5001C11.6667 17.7501 11.6667 16.3751 12.8867 15.5209Z" fill-rule="nonzero" stroke="url(#paint_linear_0)" stroke-linecap="round" stroke-linejoin="round" stroke-width="1.500000" />
				<path id="Vector" d="M18.75 22.2433C18.7502 22.2882 18.7593 22.3325 18.7766 22.3739C18.794 22.4153 18.8194 22.4528 18.8513 22.4844C18.8831 22.516 18.9209 22.5409 18.9625 22.5579C19.004 22.5749 19.0485 22.5835 19.0933 22.5833C19.161 22.5841 19.2272 22.5643 19.2833 22.5266L21.9292 20.7983C21.9762 20.7678 22.015 20.7261 22.0419 20.6769C22.0688 20.6277 22.083 20.5725 22.0833 20.5165C22.0835 20.4604 22.0698 20.4051 22.0433 20.3557C22.0168 20.3062 21.9785 20.2642 21.9317 20.2333L19.2858 18.475C19.2102 18.4243 19.1176 18.4055 19.0283 18.4227C18.9389 18.4399 18.8598 18.4916 18.8083 18.5666C18.77 18.6225 18.7497 18.6888 18.75 18.7566L18.75 22.2433Z" fill-rule="nonzero" stroke="url(#paint_linear_1)" stroke-linecap="round" stroke-linejoin="round" stroke-width="1.500000" />
			</g>
		</g>
	</g>
</svg>
