<svg viewBox="0 0 40 40" xmlns="http://www.w3.org/2000/svg" xmlns:xlink="http://www.w3.org/1999/xlink" width="40.000000" height="40.000000" fill="none" customFrame="#000000">
	<mask id="mask_0" width="16.000000" height="16.000000" x="12.000000" y="12.500000" maskUnits="userSpaceOnUse">
		<g filter="url(#pixso_custom_mask_type_outline)">
			<g id="SVGG1Ot4cAD">
				<path id="Vector" d="M12 12.5L28 12.5L28 28.5L12 28.5L12 12.5Z" fill="rgb(255,255,255)" fill-rule="nonzero" />
			</g>
		</g>
	</mask>
	<defs>
		<clipPath id="clipPath_2">
			<rect width="16.000000" height="16.000000" x="12.000000" y="12.500000" fill="rgb(255,255,255)" />
		</clipPath>
		<filter id="pixso_custom_mask_type_outline">
			<feColorMatrix type="matrix" values="0 0 0 0 1 0 0 0 0 1 0 0 0 0 1 0 0 0 1 0 " />
		</filter>
		<linearGradient id="paint_linear_3" x1="14.3748913" x2="24.3499146" y1="25.080719" y2="15.1910973" gradientUnits="userSpaceOnUse">
			<stop stop-color="rgb(247,233,63)" offset="0" stop-opacity="1" />
			<stop stop-color="rgb(251,9,180)" offset="0.511200011" stop-opacity="1" />
			<stop stop-color="rgb(145,0,248)" offset="1" stop-opacity="1" />
		</linearGradient>
	</defs>
	<g id="Group 11">
		<circle id="Ellipse 4" cx="20" cy="20" r="20" fill="rgb(255,255,255)" fill-opacity="0" />
		<circle id="Ellipse 4" cx="20" cy="20" r="19.5" stroke="rgb(83,60,114)" stroke-width="1.000000" />
		<g id="prime:twitter" clip-path="url(#clipPath_2)" customFrame="url(#clipPath_2)">
			<rect id="prime:twitter" width="16.000000" height="16.000000" x="12.000000" y="12.500000" fill="rgb(255,255,255)" fill-opacity="0" />
			<g id="Group">
				<g id="Clip path group" mask="url(#mask_0)">
					<g id="Group">
						<path id="Vector" d="M24.6 13.2498L27.0537 13.2498L21.6937 19.3915L28 27.7503L23.0629 27.7503L19.1931 22.6818L14.7703 27.7503L12.3143 27.7503L18.0469 21.1789L12 13.2509L17.0629 13.2509L20.5554 17.8829L24.6 13.2498ZM23.7371 26.2783L25.0971 26.2783L16.32 14.6452L14.8617 14.6452L23.7371 26.2783Z" fill="url(#paint_linear_3)" fill-rule="nonzero" />
					</g>
				</g>
			</g>
		</g>
	</g>
</svg>
