<svg viewBox="0 0 40 40" xmlns="http://www.w3.org/2000/svg" xmlns:xlink="http://www.w3.org/1999/xlink" width="40.000000" height="40.000000" fill="none" customFrame="#000000">
	<defs>
		<clipPath id="clipPath_1">
			<rect width="20.000000" height="20.000000" x="10.000000" y="10.000000" fill="rgb(255,255,255)" />
		</clipPath>
		<linearGradient id="paint_linear_2" x1="14.8075867" x2="25.1143227" y1="24.7381496" y2="14.9324532" gradientUnits="userSpaceOnUse">
			<stop stop-color="rgb(247,233,63)" offset="0" stop-opacity="1" />
			<stop stop-color="rgb(251,9,180)" offset="0.511200011" stop-opacity="1" />
			<stop stop-color="rgb(145,0,248)" offset="1" stop-opacity="1" />
		</linearGradient>
	</defs>
	<g id="Group 10">
		<circle id="Ellipse 4" cx="20" cy="20" r="20" fill="rgb(255,255,255)" fill-opacity="0" />
		<circle id="Ellipse 4" cx="20" cy="20" r="19.5" stroke="rgb(83,60,114)" stroke-width="1.000000" />
		<g id="ri:linkedin-fill" clip-path="url(#clipPath_1)" customFrame="url(#clipPath_1)">
			<rect id="ri:linkedin-fill" width="20.000000" height="20.000000" x="10.000000" y="10.000000" fill="rgb(255,255,255)" fill-opacity="0" />
			<path id="Vector" d="M15.7833 14.1665C15.7831 14.6086 15.6073 15.0324 15.2946 15.3448C14.9819 15.6572 14.5579 15.8326 14.1158 15.8324C13.6738 15.8321 13.25 15.6563 12.9376 15.3436C12.6252 15.0309 12.4498 14.6069 12.45 14.1649C12.4502 13.7228 12.626 13.299 12.9388 12.9866C13.2515 12.6742 13.6755 12.4988 14.1175 12.499C14.5595 12.4992 14.9834 12.6751 15.2958 12.9878C15.6082 13.3005 15.7836 13.7245 15.7833 14.1665ZM15.8333 17.0665L12.5 17.0665L12.5 27.4999L15.8333 27.4999L15.8333 17.0665ZM21.1 17.0665L17.7833 17.0665L17.7833 27.4999L21.0667 27.4999L21.0667 22.0249C21.0667 18.9749 25.0417 18.6915 25.0417 22.0249L25.0417 27.4999L28.3333 27.4999L28.3333 20.8915C28.3333 15.7499 22.45 15.9415 21.0667 18.4665L21.1 17.0665Z" fill="url(#paint_linear_2)" fill-rule="nonzero" />
		</g>
	</g>
</svg>
